<svg version="1.1" id="Layer_1" xmlns="http://www.w3.org/2000/svg" xmlns:xlink="http://www.w3.org/1999/xlink" x="0px" y="0px"
	 width="100%" viewBox="0 0 512 512" enable-background="new 0 0 512 512" xml:space="preserve">
<path fill="#000000" opacity="1.000000" stroke="none" 
	d="
M1.311907,318.221344 
	C1.000000,213.874603 1.018541,109.749176 0.920225,5.623867 
	C0.916903,2.106104 1.345560,0.885479 5.372730,0.888599 
	C173.139481,1.018570 340.906342,1.011015 508.673157,0.921687 
	C512.058533,0.919884 513.121033,1.344784 513.114685,5.170013 
	C512.966614,94.800720 513.000000,184.431732 513.000000,274.531342 
	C508.690002,276.228271 508.895264,272.441284 508.359955,270.321747 
	C506.193695,261.743988 503.654327,253.304977 499.903229,245.290863 
	C495.226135,235.298416 489.189575,226.183563 482.157135,217.648743 
	C473.460358,207.094055 462.937622,198.804413 451.382660,191.734818 
	C438.001312,183.547791 423.350983,178.689651 407.939697,176.225327 
	C402.675690,175.383591 399.767883,172.677155 397.760315,167.942795 
	C386.263275,140.829605 367.591217,119.971497 341.073059,107.217155 
	C303.790253,89.285378 266.204559,90.158234 229.810379,109.839951 
	C209.190781,120.990868 193.196671,137.388733 182.654022,158.665466 
	C181.248596,161.501846 179.842575,164.337997 178.432205,167.171921 
	C176.017990,172.022934 174.235840,172.732346 169.315384,170.591202 
	C139.550552,157.638931 111.613716,161.209106 86.264816,181.064743 
	C69.242493,194.398224 60.218193,212.591949 57.981739,234.226913 
	C57.340733,240.427872 57.871178,246.495682 58.297947,252.592010 
	C58.588985,256.749481 56.996254,259.179565 53.383495,260.845306 
	C43.962467,265.189026 35.208115,270.473450 27.698969,277.828827 
	C17.714954,287.608337 10.766713,299.116547 6.349200,312.297058 
	C5.515512,314.784515 5.529644,318.201721 1.311907,318.221344 
z"/>
<path fill="#000000" opacity="1.000000" stroke="none" 
	d="
M512.625122,318.779938 
	C513.000000,382.301239 512.972046,445.602570 513.081421,508.903595 
	C513.086975,512.114929 512.722961,513.108459 509.100220,513.105835 
	C341.018860,512.984131 172.937363,512.983032 4.855998,513.110229 
	C1.143541,513.113037 0.918864,511.979828 0.925310,508.859802 
	C1.030634,457.885803 1.000000,406.911530 1.000000,355.468658 
	C4.807656,353.878021 4.958996,357.055145 5.649058,359.196716 
	C9.155340,370.078156 13.880173,380.340424 21.288500,389.126007 
	C36.027851,406.605499 54.724041,416.583252 77.607857,418.928284 
	C90.092155,420.207611 102.564644,419.748566 115.040222,419.758911 
	C203.197479,419.832031 291.354889,419.855713 379.512085,419.755951 
	C400.648041,419.732025 421.407043,417.101196 440.729523,407.766724 
	C455.531311,400.616089 468.750702,391.357849 479.782715,378.897552 
	C493.914886,362.935791 503.322968,344.740753 508.146942,324.045258 
	C508.672760,321.789459 508.822235,318.831970 512.625122,318.779938 
z"/>
<path fill="#FFCD00" opacity="1.000000" stroke="none" 
	d="
M513.000000,318.531342 
	C511.179901,319.906067 511.185608,319.907135 511.005859,320.860229 
	C506.858368,342.853027 497.249420,362.018921 482.657227,379.092438 
	C472.242096,391.278656 459.753937,400.473419 445.905396,407.861603 
	C434.017242,414.203979 421.151520,418.206329 407.691986,420.010437 
	C392.741333,422.014435 377.714111,422.026276 362.671997,422.020142 
	C270.716553,421.982666 178.760757,422.143188 86.805885,421.912201 
	C60.325710,421.845703 37.684479,411.947113 20.342505,391.655273 
	C11.530224,381.344025 5.159976,369.474243 2.880190,355.787628 
	C2.789757,355.244720 2.055352,354.809052 1.310499,354.661713 
	C1.000000,342.979095 1.000000,330.958221 1.000000,318.468658 
	C3.132898,318.920197 2.714553,317.170959 3.001536,316.111328 
	C10.499557,288.426270 27.896946,269.390167 54.008202,258.132751 
	C56.253376,257.164795 56.610508,256.903229 56.284298,254.207672 
	C53.498348,231.186737 58.033634,210.054733 72.871376,191.535751 
	C86.485764,174.543625 103.921524,164.972641 125.428192,161.883865 
	C142.910172,159.373138 159.050781,162.717316 174.666672,170.739914 
	C178.724396,160.382172 183.456238,150.139618 190.353775,141.397842 
	C208.221191,118.753036 230.594971,102.739014 259.180542,95.858406 
	C273.233063,92.475937 287.446442,91.963272 301.445801,93.282791 
	C324.453125,95.451370 345.279480,104.099548 363.427917,118.851730 
	C380.139099,132.435608 392.761078,148.926651 400.503448,169.060760 
	C401.657593,172.062103 403.655243,173.664185 406.807465,174.001877 
	C420.498901,175.468628 433.366730,179.763107 445.538239,185.993698 
	C467.884827,197.432861 485.302429,214.070404 497.603668,236.069046 
	C504.299103,248.042694 508.917450,260.669922 511.119354,274.202820 
	C511.208038,274.747742 511.939331,275.188110 512.685608,275.338593 
	C513.000000,289.354218 513.000000,303.708466 513.000000,318.531342 
z"/>
<path fill="#000000" opacity="1.000000" stroke="none" 
	d="
M464.274841,348.314026 
	C449.303406,369.742950 429.404327,382.788239 403.859436,387.019135 
	C394.567413,388.558167 385.222931,389.030396 375.813446,389.026215 
	C279.672272,388.983459 183.530579,389.175262 87.390289,388.885895 
	C60.921295,388.806244 39.271702,373.406586 34.415447,346.054871 
	C29.611025,318.995026 44.983959,294.767303 72.605225,286.930511 
	C75.593819,286.082581 78.722389,285.576111 81.628128,285.291626 
	C91.358482,284.338898 97.832146,270.957001 93.011963,261.874390 
	C89.764465,255.755173 88.317619,248.835968 88.263733,242.190933 
	C88.184357,232.403824 91.059418,222.872543 96.846092,214.787964 
	C107.059769,200.518433 121.267723,193.517197 138.789215,194.088623 
	C150.234558,194.461884 160.047455,199.330444 168.505310,206.994705 
	C172.069824,210.224792 174.998764,213.864960 180.281754,215.271973 
	C189.662659,217.770416 199.573944,211.802063 200.984085,201.031784 
	C202.877182,186.572571 208.321991,173.490692 216.827393,161.790878 
	C225.036392,150.498764 235.518478,141.432083 247.938400,135.166443 
	C258.654510,129.760315 270.124298,126.647148 282.384888,125.841644 
	C305.617523,124.315269 326.092896,131.327087 343.740631,145.601074 
	C357.497620,156.728134 367.502380,171.056046 372.118927,188.670502 
	C373.344940,193.348419 374.777435,197.949799 378.826385,201.652893 
	C382.978729,205.450546 387.798126,205.678848 392.455261,205.864319 
	C415.082275,206.765549 434.317505,215.015579 450.975006,230.360840 
	C465.731689,243.955078 475.314667,260.461548 478.741852,279.893127 
	C483.030579,304.209229 479.003632,327.351013 464.274841,348.314026 
z"/>
<path fill="#FFCD00" opacity="1.000000" stroke="none" 
	d="
M314.729401,193.255463 
	C309.089264,185.154633 301.459503,181.212234 292.194061,179.981964 
	C286.619415,179.241760 280.764008,179.453110 276.337341,174.877991 
	C271.514404,169.893326 270.069519,163.063141 272.785339,156.686829 
	C275.718597,149.799988 280.013062,147.263794 287.612976,146.949478 
	C307.930695,146.109177 324.672211,153.970840 337.906769,168.705429 
	C346.499451,178.272018 352.854614,189.303925 353.139893,203.078140 
	C353.362396,213.822708 341.117401,220.511032 331.939026,217.409790 
	C326.337891,215.517258 322.599335,211.806320 321.050079,206.053268 
	C319.819000,201.481842 318.225342,197.106216 314.729401,193.255463 
z"/>
</svg>